<svg viewBox="0 0 200 200" xmlns="http://www.w3.org/2000/svg">
            <path fill="#0F62FE"
              d="M18.3,-22.4C32.8,-19,60.1,-29.5,67,-26.9C74,-24.3,60.6,-8.8,57.1,7.4C53.5,23.6,59.8,40.4,54.8,49.1C49.8,57.7,33.5,58.2,22.1,50.1C10.7,42,4.1,25.2,-9.6,24.8C-23.2,24.3,-43.9,40.2,-56.1,40.6C-68.3,40.9,-71.9,25.9,-68.7,13.1C-65.5,0.4,-55.4,-10.2,-48.1,-20.2C-40.8,-30.2,-36.2,-39.8,-28.7,-46.4C-21.1,-53,-10.6,-56.6,-4.4,-49.8C1.8,-43,3.7,-25.8,18.3,-22.4Z"
              transform="translate(100 100)" />
</svg>